<svg width="14" height="14" viewBox="0 0 14 14" fill="none" xmlns="http://www.w3.org/2000/svg">
<path d="M1.33708 1.97264L4.99989 12.5541C5.03438 12.6537 5.09949 12.7399 5.18591 12.8003C5.27233 12.8608 5.37564 12.8923 5.48107 12.8905C5.5865 12.8886 5.68865 12.8535 5.77292 12.7901C5.85719 12.7268 5.91926 12.6384 5.95027 12.5376L7.4225 7.75286C7.44648 7.67491 7.48917 7.60402 7.54683 7.54635C7.6045 7.48868 7.6754 7.446 7.75334 7.42201L12.5381 5.94979C12.6389 5.91878 12.7273 5.8567 12.7906 5.77243C12.854 5.68816 12.8891 5.58601 12.891 5.48058C12.8928 5.37516 12.8612 5.27185 12.8008 5.18543C12.7404 5.09901 12.6542 5.0339 12.5546 4.9994L1.97313 1.33659C1.88446 1.3059 1.78894 1.30077 1.69749 1.32181C1.60605 1.34284 1.52237 1.38918 1.45602 1.45553C1.38967 1.52188 1.34333 1.60556 1.32229 1.697C1.30126 1.78845 1.30638 1.88397 1.33708 1.97264V1.97264Z" stroke="#6E9BB8" stroke-linecap="round" stroke-linejoin="round"/>
</svg>
