<svg width="156" height="32" viewBox="0 0 156 32" fill="none" xmlns="http://www.w3.org/2000/svg">
<g clip-path="url(#clip0)">
<path d="M2.23389e-05 19.8394V8.00201C-0.0030036 7.90192 0.0143457 7.80226 0.0509773 7.70914C0.0876089 7.61602 0.142763 7.53141 0.213067 7.46047C0.281783 7.39071 0.363897 7.33573 0.454422 7.2989C0.544947 7.26208 0.641987 7.24417 0.739617 7.24627H3.44874C3.54768 7.2433 3.64618 7.26078 3.73813 7.29762C3.83009 7.33446 3.91355 7.3899 3.98334 7.46047C4.05163 7.53248 4.10493 7.61748 4.14013 7.71047C4.17533 7.80346 4.1917 7.90257 4.18831 8.00201V12.3587H9.48601V8.00201C9.48265 7.90185 9.49979 7.80206 9.53638 7.70884C9.57296 7.61562 9.62818 7.53097 9.69866 7.4601C9.76914 7.38924 9.85336 7.33369 9.94608 7.29691C10.0388 7.26012 10.138 7.24289 10.2376 7.24627H12.9347C13.0331 7.24288 13.1311 7.2602 13.2225 7.29708C13.3138 7.33396 13.3965 7.38961 13.4653 7.46047C13.5341 7.53229 13.588 7.61715 13.6239 7.71013C13.6598 7.8031 13.6769 7.90231 13.6743 8.00201V19.8394C13.6783 19.9379 13.6619 20.0362 13.6261 20.128C13.5903 20.2198 13.5359 20.3032 13.4663 20.3727C13.3968 20.4423 13.3136 20.4965 13.2221 20.532C13.1306 20.5675 13.0327 20.5835 12.9347 20.5789H10.2376C10.1384 20.5825 10.0394 20.5657 9.94684 20.5296C9.85424 20.4935 9.76991 20.4387 9.69903 20.3688C9.62965 20.2997 9.57499 20.2171 9.53836 20.1261C9.50174 20.0351 9.48393 19.9375 9.48601 19.8394V15.3008H4.18831V19.8394C4.19168 19.9383 4.17448 20.0368 4.1378 20.1287C4.10112 20.2205 4.04577 20.3037 3.97529 20.3728C3.90563 20.4407 3.82317 20.494 3.73274 20.5294C3.64231 20.5648 3.54575 20.5816 3.44874 20.5789H0.739617C0.641278 20.5827 0.543194 20.5664 0.451306 20.531C0.359418 20.4955 0.27563 20.4417 0.20502 20.3728C0.136585 20.3026 0.0831073 20.219 0.0478616 20.1273C0.0126159 20.0356 -0.00366128 19.9376 2.23389e-05 19.8394Z" fill="black"/>
<path d="M19.2249 21.8439L20.8086 22.054C21.9475 22.054 22.742 21.2148 23.1922 19.5362C21.9312 19.5767 20.7028 19.1298 19.7595 18.2874C18.8404 17.4549 18.0499 15.973 17.388 13.8418L15.5793 7.97773C15.5539 7.90506 15.5416 7.82842 15.5431 7.75141C15.5586 7.63481 15.6124 7.52674 15.6958 7.44426C15.7521 7.37931 15.8221 7.32783 15.9007 7.29357C15.9792 7.25931 16.0644 7.24313 16.15 7.24624H18.6783C18.9219 7.2503 19.1575 7.33401 19.3495 7.48469C19.545 7.63104 19.6864 7.83862 19.7515 8.07472L21.3352 13.2316C21.5773 14.174 21.9858 15.0652 22.541 15.8626C22.7116 16.0862 22.9305 16.2678 23.1812 16.3939C23.4319 16.5199 23.7078 16.587 23.988 16.59L26.3997 8.07472C26.4626 7.84279 26.5961 7.63649 26.7816 7.48469C26.958 7.33121 27.1834 7.24658 27.4166 7.24624H29.969C30.0539 7.23956 30.139 7.25415 30.2169 7.28871C30.2948 7.32327 30.3629 7.37672 30.4152 7.44426C30.4973 7.53204 30.5494 7.64392 30.5639 7.76355C30.5654 7.83571 30.5573 7.90774 30.5398 7.97773L27.3684 19.3382C26.803 21.3508 26.1036 22.7869 25.2702 23.6463C24.852 24.0731 24.3504 24.408 23.7969 24.6299C23.2434 24.8518 22.6502 24.9559 22.0546 24.9356C21.1238 24.9586 20.1926 24.91 19.2691 24.7901C18.9021 24.7621 18.5488 24.6381 18.2442 24.4304C18.179 24.3661 18.1273 24.2894 18.0921 24.2047C18.0568 24.12 18.0389 24.0291 18.0392 23.9373V22.5996C18.0358 22.5002 18.0522 22.4011 18.0874 22.3081C18.1226 22.2151 18.1759 22.1301 18.2442 22.0581C18.3138 21.9873 18.3973 21.9317 18.4892 21.8949C18.5812 21.858 18.6798 21.8407 18.7788 21.8439H19.2249Z" fill="black"/>
<path d="M32.3044 23.9454V8.00201C32.3014 7.90192 32.3188 7.80226 32.3554 7.70914C32.392 7.61602 32.4472 7.53141 32.5175 7.46047C32.5859 7.39032 32.668 7.33509 32.7586 7.29824C32.8492 7.26139 32.9463 7.24369 33.044 7.24627H35.3794C35.4778 7.24454 35.5755 7.26303 35.6666 7.30061C35.7577 7.33819 35.8402 7.39407 35.909 7.46481C35.9779 7.53556 36.0317 7.61971 36.0671 7.71208C36.1025 7.80445 36.1188 7.9031 36.1149 8.00201V8.36575C37.4093 7.45488 38.9567 6.97823 40.5364 7.00379C41.3261 6.98542 42.1107 7.13587 42.8383 7.4452C43.5658 7.75454 44.2198 8.21571 44.7568 8.79818C45.8876 9.99445 46.453 11.7053 46.453 13.9308C46.453 16.1563 45.8675 17.8617 44.6965 19.0472C43.5255 20.23 41.9485 20.8228 39.9656 20.8255C38.7755 20.795 37.5968 20.5852 36.4686 20.2031V23.9454C36.4722 24.0452 36.4555 24.1447 36.4196 24.2378C36.3836 24.3309 36.3292 24.4157 36.2596 24.487C36.1909 24.5568 36.1088 24.6117 36.0182 24.6485C35.9277 24.6854 35.8307 24.7033 35.7331 24.7012H33.0239C32.9263 24.7038 32.8291 24.6861 32.7385 24.6492C32.6479 24.6124 32.5658 24.5571 32.4974 24.487C32.4307 24.4144 32.3792 24.329 32.3461 24.236C32.3129 24.1429 32.2988 24.0441 32.3044 23.9454ZM36.4807 17.3943C37.3275 17.6905 38.2135 17.8581 39.1094 17.8914C40.2161 17.8914 40.9999 17.5748 41.4608 16.9416C41.9217 16.3085 42.1535 15.2995 42.1562 13.9146C42.1562 12.5284 41.9391 11.5181 41.497 10.8916C41.2749 10.5788 40.977 10.3282 40.6317 10.1634C40.2863 9.99865 39.9049 9.92518 39.5234 9.94998C38.6512 9.94998 37.6343 10.3137 36.4807 11.0452V17.3943Z" fill="black"/>
<path d="M76.4062 19.8394V8.00201C76.4027 7.9022 76.4194 7.80271 76.4553 7.70961C76.4913 7.6165 76.5457 7.53175 76.6153 7.46047C76.684 7.39071 76.7661 7.33573 76.8566 7.2989C76.9471 7.26208 77.0442 7.24417 77.1418 7.24627H79.67C79.7697 7.24289 79.8689 7.26012 79.9616 7.29691C80.0544 7.33369 80.1386 7.38924 80.209 7.4601C80.2795 7.53097 80.3348 7.61562 80.3713 7.70884C80.4079 7.80206 80.425 7.90185 80.4217 8.00201V15.996L84.6783 8.12325C84.8173 7.86464 85.0227 7.6483 85.2732 7.49683C85.5031 7.34134 85.772 7.25447 86.049 7.24627H89.4334C89.533 7.24289 89.6322 7.26012 89.7249 7.29691C89.8176 7.33369 89.9019 7.38924 89.9724 7.4601C90.0428 7.53097 90.0981 7.61562 90.1347 7.70884C90.1713 7.80206 90.1884 7.90185 90.185 8.00201V19.8394C90.1884 19.9383 90.1712 20.0368 90.1345 20.1287C90.0978 20.2205 90.0424 20.3037 89.972 20.3728C89.9006 20.4418 89.8161 20.4957 89.7236 20.5311C89.631 20.5665 89.5323 20.5828 89.4334 20.5789H86.9051C86.807 20.5828 86.7092 20.5662 86.6178 20.53C86.5265 20.4938 86.4436 20.4389 86.3746 20.3688C86.307 20.2987 86.2541 20.2158 86.2189 20.1249C86.1837 20.034 86.1669 19.9369 86.1696 19.8394V11.8575L81.9009 19.706C81.7574 19.9567 81.5544 20.1678 81.31 20.3203C81.0818 20.4803 80.8123 20.5701 80.5342 20.5789H77.1338C77.036 20.5835 76.9383 20.5676 76.8469 20.532C76.7556 20.4965 76.6727 20.4422 76.6035 20.3726C76.5342 20.3029 76.4802 20.2196 76.4448 20.1277C76.4095 20.0359 76.3936 19.9377 76.3982 19.8394H76.4062Z" fill="black"/>
<path d="M93.1557 19.8394V8.00203C93.1527 7.90193 93.17 7.80228 93.2066 7.70916C93.2433 7.61604 93.2984 7.53142 93.3687 7.46049C93.4374 7.39073 93.5196 7.33575 93.6101 7.29892C93.7006 7.2621 93.7976 7.24419 93.8953 7.24628H96.6044C96.7034 7.24258 96.8022 7.25972 96.8942 7.2966C96.9863 7.33349 97.0696 7.38932 97.139 7.46049C97.2073 7.5325 97.2606 7.6175 97.2958 7.71049C97.331 7.80348 97.3474 7.90259 97.344 8.00203V12.3587H102.642V8.00203C102.638 7.90187 102.655 7.80208 102.692 7.70886C102.729 7.61564 102.784 7.53098 102.854 7.46012C102.925 7.38926 103.009 7.33371 103.102 7.29692C103.194 7.26014 103.294 7.2429 103.393 7.24628H106.09C106.189 7.24332 106.288 7.2608 106.38 7.29764C106.472 7.33448 106.555 7.38992 106.625 7.46049C106.693 7.5325 106.747 7.6175 106.782 7.71049C106.817 7.80348 106.833 7.90259 106.83 8.00203V19.8394C106.834 19.9376 106.817 20.0356 106.782 20.1273C106.747 20.2191 106.693 20.3026 106.625 20.3728C106.554 20.4414 106.47 20.4949 106.378 20.5303C106.287 20.5657 106.189 20.5823 106.09 20.5789H103.393C103.294 20.5825 103.195 20.5657 103.102 20.5296C103.01 20.4935 102.926 20.4388 102.855 20.3688C102.785 20.2997 102.731 20.2171 102.694 20.1261C102.657 20.0351 102.64 19.9375 102.642 19.8394V15.3008H97.336V19.8394C97.3393 19.9383 97.3221 20.0368 97.2854 20.1287C97.2487 20.2205 97.1934 20.3037 97.1229 20.3728C97.0535 20.4411 96.9711 20.4946 96.8806 20.53C96.7901 20.5655 96.6934 20.5821 96.5964 20.5789H93.8872C93.7895 20.5826 93.692 20.5663 93.6008 20.5308C93.5096 20.4954 93.4265 20.4416 93.3567 20.3728C93.2884 20.3027 93.2352 20.219 93.2006 20.1272C93.166 20.0354 93.1508 19.9374 93.1557 19.8394Z" fill="black"/>
<path d="M110.648 19.706C110.134 19.3608 109.715 18.8887 109.434 18.3346C109.153 17.7806 109.017 17.1632 109.041 16.5416C109.015 15.923 109.15 15.3085 109.432 14.758C109.714 14.2076 110.133 13.7401 110.648 13.4014C111.885 12.6277 113.325 12.2475 114.78 12.3102H118.8C118.8 11.3591 118.602 10.6977 118.205 10.3259C117.803 9.95404 117.12 9.76409 116.131 9.76409C115.142 9.76409 114.451 10.0106 114.049 10.5037C113.878 10.7324 113.656 10.9179 113.402 11.0456C113.147 11.1732 112.866 11.2395 112.582 11.2392H110.777C110.677 11.2423 110.578 11.2248 110.486 11.188C110.393 11.1512 110.309 11.0957 110.238 11.025C110.169 10.9559 110.114 10.8734 110.078 10.7823C110.041 10.6913 110.023 10.5938 110.025 10.4956C110.025 8.16773 112.224 7.00381 116.621 7.00381C118.543 7.00381 120.083 7.43623 121.244 8.3011C122.404 9.16596 122.984 10.5023 122.984 12.3102V19.8394C122.989 19.9377 122.973 20.036 122.938 20.1278C122.902 20.2196 122.848 20.303 122.779 20.3726C122.71 20.4422 122.627 20.4965 122.535 20.5321C122.444 20.5676 122.346 20.5836 122.249 20.5789H119.913C119.814 20.5834 119.716 20.567 119.624 20.5308C119.532 20.4947 119.448 20.4395 119.379 20.3688C119.311 20.2988 119.258 20.2158 119.223 20.1249C119.188 20.034 119.171 19.9369 119.174 19.8394V19.4595C117.885 20.3827 116.334 20.8632 114.752 20.8295C113.302 20.8858 111.87 20.4937 110.648 19.706ZM113.735 15.4827C113.579 15.6147 113.453 15.7796 113.367 15.9656C113.281 16.1517 113.236 16.3545 113.236 16.5597C113.236 16.765 113.281 16.9678 113.367 17.1539C113.453 17.34 113.579 17.5048 113.735 17.6368C114.15 17.9444 114.66 18.0947 115.174 18.0611C116.452 18.0513 117.7 17.671 118.768 16.9659V15.0543H115.054C114.578 15.0355 114.11 15.1873 113.735 15.4827Z" fill="black"/>
<path d="M125.95 19.8394V8.00203C125.947 7.90222 125.964 7.80273 126 7.70963C126.036 7.61652 126.09 7.53176 126.159 7.46049C126.228 7.39073 126.31 7.33575 126.401 7.29892C126.491 7.2621 126.588 7.24419 126.686 7.24628H129.399C129.498 7.2429 129.596 7.26021 129.687 7.2971C129.778 7.33398 129.861 7.38963 129.93 7.46049C129.998 7.5325 130.051 7.6175 130.087 7.71049C130.122 7.80348 130.138 7.90259 130.135 8.00203V12.3587H135.436V8.00203C135.433 7.90207 135.449 7.80237 135.485 7.70916C135.521 7.61595 135.576 7.53124 135.646 7.46032C135.717 7.38939 135.801 7.33377 135.893 7.29695C135.986 7.26012 136.085 7.24287 136.184 7.24628H138.881C138.98 7.24258 139.079 7.25972 139.171 7.2966C139.263 7.33349 139.346 7.38932 139.416 7.46049C139.484 7.5325 139.537 7.6175 139.573 7.71049C139.608 7.80348 139.624 7.90259 139.621 8.00203V19.8394C139.625 19.9381 139.609 20.0367 139.574 20.1288C139.538 20.2209 139.484 20.3044 139.414 20.3741C139.345 20.4438 139.261 20.4981 139.169 20.5333C139.077 20.5686 138.979 20.5841 138.881 20.5789H136.184C136.085 20.5825 135.986 20.5657 135.893 20.5296C135.801 20.4935 135.716 20.4388 135.645 20.3688C135.577 20.2995 135.523 20.2168 135.487 20.1258C135.451 20.0347 135.434 19.9373 135.436 19.8394V15.3008H130.135V19.8394C130.139 19.9384 130.122 20.0372 130.085 20.1291C130.049 20.2211 129.993 20.3042 129.922 20.3728C129.853 20.4406 129.771 20.4938 129.681 20.5292C129.592 20.5646 129.496 20.5815 129.399 20.5789H126.686C126.588 20.5835 126.491 20.5676 126.399 20.532C126.308 20.4965 126.225 20.4422 126.156 20.3726C126.086 20.303 126.032 20.2196 125.997 20.1278C125.962 20.0359 125.946 19.9377 125.95 19.8394Z" fill="black"/>
<path d="M149.026 20.8255C146.762 20.8255 145.001 20.2408 143.744 19.0715C142.488 17.9022 141.859 16.1846 141.859 13.9187C141.859 11.6528 142.484 9.93384 143.732 8.76182C144.981 7.58981 146.723 7.00381 148.958 7.00381C151.187 7.00381 152.902 7.36079 154.103 8.07478C154.664 8.38284 155.129 8.84206 155.446 9.40097C155.763 9.95988 155.918 10.5964 155.895 11.2392C155.899 11.3379 155.883 11.4362 155.847 11.5281C155.811 11.6199 155.756 11.7032 155.686 11.7727C155.615 11.8414 155.53 11.8949 155.438 11.9303C155.345 11.9657 155.247 11.9822 155.148 11.9788H153.343C153.054 11.9668 152.774 11.8787 152.53 11.7233C152.286 11.568 152.087 11.3509 151.952 11.0937C151.478 10.3286 150.638 9.94731 149.432 9.95001C148.226 9.95001 147.382 10.2571 146.904 10.8795C146.425 11.5019 146.18 12.4961 146.18 13.9146C146.18 15.3332 146.43 16.3395 146.928 16.9538C147.426 17.5681 148.287 17.8914 149.516 17.8914C150.746 17.8914 151.599 17.5115 152.073 16.7477C152.206 16.4928 152.402 16.2772 152.644 16.122C152.885 15.9668 153.162 15.8774 153.448 15.8626H155.252C155.352 15.8596 155.451 15.877 155.544 15.9138C155.636 15.9507 155.72 16.0061 155.791 16.0768C155.86 16.1459 155.915 16.2285 155.952 16.3195C155.988 16.4105 156.006 16.5081 156.004 16.6062C156.027 17.2496 155.871 17.8865 155.553 18.4456C155.236 19.0046 154.77 19.4635 154.207 19.7707C153.009 20.4712 151.282 20.8228 149.026 20.8255Z" fill="black"/>
<path d="M56.4776 16.4971V4.19098C56.4776 4.19098 52.7194 5.46808 52.4903 5.56912C51.629 5.94741 50.8953 6.5687 50.3781 7.35774C49.8609 8.14678 49.5823 9.0697 49.5762 10.0147V19.9647C49.5835 20.9089 49.862 21.8308 50.3783 22.6195C50.8946 23.4082 51.6267 24.0301 52.4863 24.4102C52.7154 24.5113 56.4776 25.7883 56.4776 25.7883V20.979H54.6528L56.4776 16.4971Z" fill="#60AAFB"/>
<path d="M64.8424 8.40616V0C64.8424 0 61.0801 1.28112 60.855 1.37811C59.9944 1.75725 59.2612 2.37877 58.7441 3.16762C58.227 3.95648 57.9481 4.87893 57.9409 5.82368V16.5537L59.7376 20.9993H57.9409C57.9409 26.7825 57.9409 32.0162 57.9409 32.0162C57.9409 32.0162 61.7031 30.735 61.9322 30.634C62.7926 30.2544 63.5255 29.6328 64.0425 28.8441C64.5595 28.0553 64.8387 27.1331 64.8464 26.1884V12.9528H63.0095L64.8424 8.40616Z" fill="#355DFB"/>
<path d="M73.1466 10.0187C73.1404 9.07368 72.8618 8.15078 72.3446 7.36174C71.8274 6.5727 71.0937 5.95139 70.2324 5.57309C70.0033 5.47206 66.2451 4.19498 66.2451 4.19498V8.44252L68.078 12.9568H66.2451V25.8005C66.2451 25.8005 70.0073 24.5233 70.2364 24.4223C71.0961 24.0422 71.8281 23.4203 72.3444 22.6316C72.8607 21.8429 73.1392 20.9209 73.1466 19.9767V10.0187Z" fill="#0000DE"/>
</g>
<defs>
<clipPath id="clip0">
<rect width="156" height="32" fill="white"/>
</clipPath>
</defs>
</svg>
