<svg width="159" height="32" viewBox="0 0 159 32" fill="none" xmlns="http://www.w3.org/2000/svg">
<g clip-path="url(#clip0_32:1093)">
<path d="M2.9748e-05 19.8394V8.00201C-0.0030401 7.90192 0.014561 7.80226 0.0517241 7.70914C0.0888871 7.61602 0.144841 7.53141 0.216165 7.46047C0.285879 7.39071 0.369184 7.33573 0.461022 7.2989C0.552861 7.26208 0.651309 7.24417 0.750356 7.24627H3.49879C3.59917 7.2433 3.69909 7.26078 3.79238 7.29762C3.88567 7.33446 3.97034 7.3899 4.04115 7.46047C4.11043 7.53248 4.1645 7.61748 4.20021 7.71047C4.23592 7.80346 4.25253 7.90257 4.24909 8.00201V12.3587H9.62366V8.00201C9.62025 7.90185 9.63764 7.80206 9.67475 7.70884C9.71187 7.61562 9.76789 7.53097 9.83939 7.4601C9.91089 7.38924 9.99634 7.33369 10.0904 7.29691C10.1845 7.26012 10.2851 7.24289 10.3862 7.24627H13.1224C13.2222 7.24288 13.3217 7.2602 13.4143 7.29708C13.507 7.33396 13.5909 7.38961 13.6607 7.46047C13.7305 7.53229 13.7852 7.61715 13.8216 7.71013C13.858 7.8031 13.8754 7.90231 13.8727 8.00201V19.8394C13.8768 19.9379 13.8601 20.0362 13.8238 20.128C13.7875 20.2198 13.7323 20.3032 13.6617 20.3727C13.5912 20.4423 13.5068 20.4965 13.4139 20.532C13.3211 20.5675 13.2218 20.5835 13.1224 20.5789H10.3862C10.2855 20.5825 10.1851 20.5657 10.0912 20.5296C9.99723 20.4935 9.91168 20.4387 9.83977 20.3688C9.76938 20.2997 9.71393 20.2171 9.67677 20.1261C9.63961 20.0351 9.62154 19.9375 9.62366 19.8394V15.3008H4.24909V19.8394C4.25251 19.9383 4.23506 20.0368 4.19785 20.1287C4.16063 20.2205 4.10448 20.3037 4.03298 20.3728C3.96231 20.4407 3.87865 20.494 3.7869 20.5294C3.69516 20.5648 3.5972 20.5816 3.49879 20.5789H0.750356C0.65059 20.5827 0.551083 20.5664 0.457862 20.531C0.364641 20.4955 0.279637 20.4417 0.208002 20.3728C0.138574 20.3026 0.0843203 20.219 0.0485632 20.1273C0.0128061 20.0356 -0.00370732 19.9376 2.9748e-05 19.8394Z" fill="black"/>
<path d="M19.5039 21.8439L21.1106 22.054C22.266 22.054 23.072 21.2148 23.5287 19.5362C22.2495 19.5767 21.0032 19.1298 20.0463 18.2874C19.1138 17.4549 18.3119 15.973 17.6404 13.8418L15.8054 7.97773C15.7796 7.90506 15.7672 7.82842 15.7687 7.75141C15.7845 7.63481 15.839 7.52674 15.9236 7.44426C15.9807 7.37931 16.0517 7.32783 16.1314 7.29357C16.2112 7.25931 16.2976 7.24313 16.3844 7.24624H18.9494C19.1965 7.2503 19.4355 7.33401 19.6304 7.48469C19.8286 7.63104 19.9721 7.83862 20.0381 8.07472L21.6448 13.2316C21.8905 14.174 22.3048 15.0652 22.8681 15.8626C23.0412 16.0861 23.2633 16.2678 23.5176 16.3939C23.7719 16.5199 24.0518 16.5869 24.3361 16.59L26.7828 8.07472C26.8466 7.84279 26.9821 7.63649 27.1702 7.48469C27.3492 7.33121 27.5778 7.24658 27.8145 7.24624H30.4039C30.49 7.23956 30.5764 7.25415 30.6554 7.28871C30.7344 7.32327 30.8035 7.37672 30.8565 7.44426C30.9398 7.53204 30.9927 7.64392 31.0074 7.76355C31.009 7.83571 31.0007 7.90774 30.9829 7.97773L27.7656 19.3382C27.192 21.3508 26.4824 22.7869 25.6369 23.6463C25.2127 24.0731 24.7037 24.408 24.1422 24.6299C23.5807 24.8518 22.9789 24.9559 22.3747 24.9355C21.4304 24.9586 20.4856 24.91 19.5488 24.7901C19.1765 24.7621 18.818 24.6381 18.509 24.4304C18.4428 24.3661 18.3903 24.2894 18.3546 24.2047C18.3189 24.12 18.3007 24.0291 18.301 23.9373V22.5996C18.2976 22.5002 18.3142 22.401 18.3499 22.3081C18.3856 22.2151 18.4397 22.1301 18.509 22.0581C18.5796 21.9873 18.6643 21.9317 18.7576 21.8949C18.8509 21.858 18.9509 21.8406 19.0513 21.8439H19.5039Z" fill="black"/>
<path d="M32.7732 23.9454V8.00201C32.7701 7.90192 32.7877 7.80226 32.8249 7.70914C32.8621 7.61602 32.918 7.53141 32.9893 7.46047C33.0588 7.39032 33.142 7.33509 33.2339 7.29824C33.3258 7.26139 33.4244 7.24369 33.5235 7.24627H35.8927C35.9926 7.24454 36.0918 7.26303 36.1842 7.30061C36.2766 7.33819 36.3603 7.39407 36.4301 7.46481C36.5 7.53556 36.5545 7.6197 36.5904 7.71207C36.6264 7.80445 36.6429 7.9031 36.639 8.00201V8.36575C37.9521 7.45488 39.522 6.97823 41.1246 7.00379C41.9258 6.98542 42.7217 7.13587 43.4599 7.4452C44.198 7.75454 44.8614 8.21571 45.4063 8.79818C46.5535 9.99444 47.1271 11.7053 47.1271 13.9308C47.1271 16.1562 46.5331 17.8617 45.3451 19.0472C44.1571 20.23 42.5572 20.8228 40.5455 20.8255C39.3382 20.795 38.1423 20.5852 36.9978 20.2031V23.9454C37.0014 24.0452 36.9845 24.1447 36.948 24.2378C36.9116 24.3309 36.8564 24.4157 36.7858 24.487C36.7161 24.5568 36.6327 24.6117 36.5409 24.6485C36.4491 24.6854 36.3506 24.7033 36.2516 24.7012H33.5032C33.404 24.7037 33.3055 24.6861 33.2135 24.6492C33.1216 24.6124 33.0384 24.5571 32.969 24.487C32.9013 24.4144 32.8491 24.329 32.8154 24.236C32.7818 24.1429 32.7675 24.0441 32.7732 23.9454ZM37.0101 17.3943C37.8691 17.6905 38.768 17.8581 39.6769 17.8914C40.7997 17.8914 41.5949 17.5748 42.0625 16.9416C42.53 16.3085 42.7652 15.2995 42.7679 13.9146C42.7679 12.5284 42.5477 11.5181 42.0991 10.8916C41.8738 10.5788 41.5716 10.3282 41.2213 10.1634C40.8709 9.99864 40.4839 9.92518 40.0969 9.94998C39.2121 9.94998 38.1804 10.3137 37.0101 11.0452V17.3943Z" fill="black"/>
<path d="M77.5148 19.8394V8.00201C77.5112 7.9022 77.5281 7.80271 77.5646 7.70961C77.601 7.6165 77.6562 7.53175 77.7268 7.46047C77.7965 7.39071 77.8798 7.33573 77.9717 7.2989C78.0635 7.26208 78.162 7.24417 78.261 7.24627H80.8259C80.927 7.24289 81.0277 7.26012 81.1218 7.29691C81.2158 7.33369 81.3012 7.38924 81.3727 7.4601C81.4442 7.53097 81.5003 7.61562 81.5374 7.70884C81.5745 7.80206 81.5919 7.90185 81.5885 8.00201V15.996L85.9069 8.12325C86.0478 7.86464 86.2563 7.6483 86.5104 7.49683C86.7436 7.34134 87.0164 7.25447 87.2974 7.24627H90.7309C90.832 7.24289 90.9326 7.26012 91.0267 7.29691C91.1208 7.33369 91.2062 7.38924 91.2777 7.4601C91.3492 7.53097 91.4053 7.61562 91.4424 7.70884C91.4795 7.80206 91.4969 7.90185 91.4935 8.00201V19.8394C91.4969 19.9383 91.4794 20.0368 91.4422 20.1287C91.405 20.2205 91.3488 20.3037 91.2773 20.3728C91.2049 20.4418 91.1193 20.4957 91.0254 20.5311C90.9315 20.5665 90.8313 20.5828 90.7309 20.5789H88.166C88.0664 20.5828 87.9672 20.5662 87.8745 20.53C87.7818 20.4938 87.6978 20.4389 87.6277 20.3688C87.5592 20.2987 87.5055 20.2158 87.4698 20.1249C87.4341 20.034 87.417 19.9369 87.4198 19.8394V11.8575L83.0891 19.706C82.9436 19.9567 82.7377 20.1678 82.4897 20.3203C82.2582 20.4803 81.9848 20.5701 81.7027 20.5789H78.2529C78.1536 20.5835 78.0545 20.5676 77.9619 20.532C77.8692 20.4965 77.7851 20.4422 77.7149 20.3726C77.6446 20.3029 77.5898 20.2196 77.5539 20.1277C77.5181 20.0359 77.502 19.9377 77.5066 19.8394H77.5148Z" fill="black"/>
<path d="M94.5073 19.8394V8.00203C94.5042 7.90193 94.5218 7.80228 94.5589 7.70916C94.5961 7.61604 94.6521 7.53142 94.7234 7.46049C94.7931 7.39073 94.8764 7.33575 94.9683 7.29892C95.0601 7.2621 95.1585 7.24419 95.2576 7.24628H98.006C98.1065 7.24258 98.2066 7.25972 98.3 7.2966C98.3934 7.33349 98.478 7.38932 98.5484 7.46049C98.6177 7.5325 98.6717 7.6175 98.7074 7.71049C98.7431 7.80348 98.7598 7.90259 98.7563 8.00203V12.3587H104.131V8.00203C104.127 7.90187 104.145 7.80208 104.182 7.70886C104.219 7.61564 104.275 7.53098 104.347 7.46012C104.418 7.38926 104.504 7.33371 104.598 7.29692C104.692 7.26014 104.792 7.2429 104.893 7.24628H107.63C107.73 7.24332 107.83 7.2608 107.923 7.29764C108.016 7.33448 108.101 7.38992 108.172 7.46049C108.241 7.5325 108.295 7.6175 108.331 7.71049C108.367 7.80348 108.383 7.90259 108.38 8.00203V19.8394C108.384 19.9376 108.367 20.0356 108.331 20.1273C108.296 20.2191 108.241 20.3026 108.172 20.3728C108.1 20.4414 108.015 20.4949 107.922 20.5303C107.829 20.5657 107.729 20.5823 107.63 20.5789H104.893C104.793 20.5825 104.692 20.5657 104.598 20.5296C104.504 20.4935 104.419 20.4388 104.347 20.3688C104.277 20.2997 104.221 20.2171 104.184 20.1261C104.147 20.0351 104.129 19.9375 104.131 19.8394V15.3008H98.7482V19.8394C98.7516 19.9383 98.7341 20.0368 98.6969 20.1287C98.6597 20.2206 98.6035 20.3037 98.532 20.3728C98.4617 20.4411 98.3781 20.4946 98.2862 20.53C98.1944 20.5655 98.0963 20.5821 97.9979 20.5789H95.2494C95.1503 20.5826 95.0514 20.5663 94.9588 20.5308C94.8663 20.4954 94.782 20.4416 94.7112 20.3728C94.6419 20.3027 94.588 20.219 94.5529 20.1272C94.5178 20.0354 94.5023 19.9374 94.5073 19.8394Z" fill="black"/>
<path d="M112.254 19.706C111.732 19.3608 111.307 18.8886 111.022 18.3346C110.736 17.7806 110.599 17.1632 110.623 16.5415C110.597 15.923 110.734 15.3084 111.02 14.758C111.306 14.2076 111.731 13.7401 112.254 13.4013C113.508 12.6277 114.969 12.2474 116.446 12.3102H120.524C120.524 11.3591 120.322 10.6976 119.92 10.3258C119.512 9.95401 118.819 9.76406 117.816 9.76406C116.813 9.76406 116.111 10.0106 115.704 10.5036C115.53 10.7323 115.305 10.9179 115.047 11.0455C114.789 11.1732 114.504 11.2395 114.215 11.2392H112.384C112.283 11.2422 112.183 11.2248 112.089 11.188C111.995 11.1512 111.909 11.0957 111.838 11.025C111.767 10.9559 111.712 10.8733 111.675 10.7823C111.638 10.6913 111.62 10.5937 111.622 10.4956C111.622 8.1677 113.852 7.00378 118.313 7.00378C120.263 7.00378 121.826 7.4362 123.003 8.30107C124.18 9.16593 124.768 10.5023 124.768 12.3102V19.8394C124.773 19.9377 124.757 20.0359 124.721 20.1277C124.685 20.2196 124.63 20.3029 124.56 20.3726C124.49 20.4422 124.406 20.4965 124.313 20.532C124.221 20.5676 124.121 20.5835 124.022 20.5789H121.653C121.553 20.5834 121.453 20.567 121.359 20.5308C121.266 20.4946 121.181 20.4394 121.111 20.3688C121.042 20.2987 120.988 20.2158 120.953 20.1249C120.917 20.034 120.9 19.9369 120.903 19.8394V19.4595C119.595 20.3827 118.022 20.8632 116.417 20.8295C114.946 20.8858 113.493 20.4937 112.254 19.706ZM115.385 15.4827C115.227 15.6147 115.099 15.7795 115.012 15.9656C114.924 16.1517 114.879 16.3544 114.879 16.5597C114.879 16.765 114.924 16.9678 115.012 17.1539C115.099 17.3399 115.227 17.5048 115.385 17.6368C115.806 17.9444 116.323 18.0946 116.845 18.0611C118.142 18.0513 119.407 17.671 120.491 16.9659V15.0543H116.723C116.24 15.0355 115.766 15.1873 115.385 15.4827Z" fill="black"/>
<path d="M127.778 19.8394V8.00203C127.774 7.90222 127.791 7.80273 127.827 7.70963C127.864 7.61652 127.919 7.53176 127.99 7.46049C128.059 7.39073 128.143 7.33575 128.235 7.29892C128.326 7.2621 128.425 7.24419 128.524 7.24628H131.276C131.376 7.2429 131.476 7.26021 131.568 7.2971C131.661 7.33398 131.745 7.38963 131.815 7.46049C131.884 7.5325 131.938 7.6175 131.974 7.71049C132.009 7.80348 132.026 7.90259 132.023 8.00203V12.3587H137.401V8.00203C137.397 7.90207 137.414 7.80237 137.451 7.70916C137.487 7.61595 137.543 7.53124 137.614 7.46032C137.685 7.38939 137.771 7.33377 137.865 7.29695C137.958 7.26012 138.059 7.24287 138.16 7.24628H140.896C140.996 7.24258 141.097 7.25972 141.19 7.2966C141.283 7.33349 141.368 7.38932 141.438 7.46049C141.508 7.5325 141.562 7.6175 141.597 7.71049C141.633 7.80348 141.65 7.90259 141.646 8.00203V19.8394C141.651 19.9381 141.635 20.0367 141.599 20.1288C141.563 20.2209 141.507 20.3044 141.437 20.3741C141.366 20.4438 141.281 20.498 141.188 20.5333C141.095 20.5686 140.996 20.5841 140.896 20.5789H138.16C138.059 20.5825 137.959 20.5657 137.865 20.5296C137.771 20.4935 137.685 20.4388 137.613 20.3688C137.543 20.2995 137.489 20.2168 137.452 20.1258C137.416 20.0347 137.398 19.9373 137.401 19.8394V15.3008H132.023V19.8394C132.027 19.9384 132.01 20.0372 131.972 20.1291C131.935 20.2211 131.879 20.3042 131.807 20.3728C131.737 20.4406 131.654 20.4938 131.563 20.5292C131.472 20.5646 131.374 20.5815 131.276 20.5789H128.524C128.425 20.5835 128.326 20.5676 128.233 20.532C128.14 20.4965 128.056 20.4422 127.986 20.3726C127.916 20.303 127.861 20.2196 127.825 20.1278C127.789 20.0359 127.773 19.9377 127.778 19.8394Z" fill="black"/>
<path d="M151.189 20.8255C148.892 20.8255 147.105 20.2408 145.83 19.0715C144.555 17.9022 143.918 16.1846 143.918 13.9187C143.918 11.6528 144.551 9.93381 145.818 8.76179C147.085 7.58978 148.852 7.00378 151.119 7.00378C153.381 7.00378 155.121 7.36076 156.339 8.07475C156.909 8.38281 157.381 8.84203 157.702 9.40094C158.023 9.95985 158.181 10.5964 158.158 11.2392C158.162 11.3378 158.145 11.4362 158.108 11.528C158.072 11.6199 158.016 11.7032 157.946 11.7727C157.873 11.8413 157.787 11.8949 157.693 11.9303C157.6 11.9657 157.499 11.9822 157.399 11.9788H155.568C155.275 11.9668 154.991 11.8786 154.743 11.7233C154.496 11.568 154.294 11.3508 154.157 11.0937C153.676 10.3285 152.824 9.94728 151.601 9.94998C150.377 9.94998 149.521 10.2571 149.036 10.8795C148.55 11.5019 148.302 12.4961 148.302 13.9146C148.302 15.3332 148.554 16.3395 149.06 16.9538C149.566 17.5681 150.438 17.8914 151.686 17.8914C152.934 17.8914 153.798 17.5115 154.28 16.7477C154.415 16.4928 154.614 16.2772 154.859 16.122C155.103 15.9668 155.384 15.8774 155.674 15.8626H157.505C157.606 15.8595 157.707 15.877 157.801 15.9138C157.895 15.9506 157.98 16.0061 158.052 16.0768C158.122 16.1459 158.177 16.2284 158.215 16.3195C158.252 16.4105 158.27 16.5081 158.268 16.6062C158.291 17.2495 158.133 17.8865 157.811 18.4456C157.489 19.0046 157.016 19.4635 156.445 19.7706C155.23 20.4712 153.478 20.8228 151.189 20.8255Z" fill="black"/>
<path d="M57.297 16.4971V4.19098C57.297 4.19098 53.4842 5.46808 53.2518 5.56912C52.378 5.94741 51.6337 6.5687 51.109 7.35774C50.5842 8.14678 50.3016 9.0697 50.2954 10.0147V19.9647C50.3028 20.9089 50.5854 21.8308 51.1092 22.6195C51.633 23.4082 52.3756 24.0301 53.2477 24.4102C53.4802 24.5113 57.297 25.7883 57.297 25.7883V20.979H55.4457L57.297 16.4971Z" fill="#60AAFB"/>
<path d="M65.7828 8.40616V0C65.7828 0 61.966 1.28112 61.7376 1.37811C60.8645 1.75725 60.1207 2.37877 59.5961 3.16762C59.0715 3.95648 58.7885 4.87893 58.7812 5.82368V16.5537L60.604 20.9993H58.7812C58.7812 26.7825 58.7812 32.0162 58.7812 32.0162C58.7812 32.0162 62.598 30.735 62.8305 30.634C63.7033 30.2544 64.4468 29.6328 64.9714 28.8441C65.4959 28.0553 65.7791 27.1331 65.7869 26.1884V12.9528H63.9233L65.7828 8.40616Z" fill="#355DFB"/>
<path d="M74.2076 10.0187C74.2014 9.07368 73.9188 8.15078 73.3941 7.36174C72.8693 6.5727 72.125 5.95139 71.2512 5.57309C71.0188 5.47206 67.2061 4.19498 67.2061 4.19498V8.44252L69.0655 12.9568H67.2061V25.8004C67.2061 25.8004 71.0229 24.5233 71.2553 24.4223C72.1274 24.0422 72.87 23.4203 73.3938 22.6316C73.9176 21.8429 74.2002 20.9209 74.2076 19.9767V10.0187Z" fill="#0000DE"/>
</g>
<defs>
<clipPath id="clip0_32:1093">
<rect width="158.264" height="32" fill="white"/>
</clipPath>
</defs>
</svg>
