<svg width="228" height="46" viewBox="0 0 228 46" fill="none" xmlns="http://www.w3.org/2000/svg">
<g clip-path="url(#clip0)">
<path d="M-0.000231895 28.5192V11.503C-0.0046448 11.3591 0.0206567 11.2159 0.0740787 11.082C0.127501 10.9481 0.207935 10.8265 0.310463 10.7245C0.410676 10.6243 0.530428 10.5452 0.662445 10.4923C0.794463 10.4393 0.935982 10.4136 1.07836 10.4166H5.02924C5.17353 10.4124 5.31717 10.4375 5.45127 10.4904C5.58537 10.5434 5.70709 10.6231 5.80887 10.7245C5.90846 10.8281 5.98619 10.9502 6.03753 11.0839C6.08886 11.2176 6.11274 11.36 6.1078 11.503V17.7657H13.8337V11.503C13.8288 11.359 13.8538 11.2156 13.9072 11.0816C13.9605 10.9476 14.0411 10.8259 14.1439 10.724C14.2466 10.6221 14.3695 10.5423 14.5047 10.4894C14.6399 10.4365 14.7846 10.4118 14.9299 10.4166H18.8632C19.0067 10.4118 19.1496 10.4366 19.2828 10.4897C19.4161 10.5427 19.5367 10.6227 19.6369 10.7245C19.7373 10.8278 19.8159 10.9498 19.8683 11.0834C19.9206 11.2171 19.9456 11.3597 19.9418 11.503V28.5192C19.9476 28.6608 19.9236 28.8021 19.8714 28.9341C19.8192 29.0661 19.7399 29.1859 19.6384 29.2859C19.537 29.3859 19.4157 29.4639 19.2823 29.5149C19.1488 29.5659 19.0061 29.5889 18.8632 29.5823H14.9299C14.7851 29.5874 14.6408 29.5633 14.5058 29.5114C14.3707 29.4594 14.2478 29.3808 14.1444 29.2802C14.0432 29.1809 13.9635 29.0622 13.9101 28.9314C13.8567 28.8005 13.8307 28.6603 13.8337 28.5192V21.995H6.1078V28.5192C6.1127 28.6614 6.08763 28.803 6.03413 28.9351C5.98063 29.0671 5.89991 29.1867 5.79714 29.286C5.69555 29.3837 5.57528 29.4602 5.4434 29.5111C5.31152 29.562 5.1707 29.5862 5.02924 29.5823H1.07836C0.934948 29.5877 0.791907 29.5643 0.657902 29.5134C0.523896 29.4624 0.401703 29.3851 0.298728 29.286C0.198926 29.185 0.120936 29.065 0.0695349 28.9331C0.018134 28.8013 -0.00560393 28.6604 -0.000231895 28.5192Z" fill="black"/>
<path d="M28.0371 31.4004L30.3467 31.7025C32.0075 31.7025 33.1662 30.4961 33.8227 28.0832C31.9838 28.1414 30.1923 27.4989 28.8167 26.288C27.4763 25.0913 26.3235 22.9611 25.3582 19.8975L22.7204 11.4679C22.6834 11.3634 22.6655 11.2532 22.6676 11.1425C22.6903 10.9749 22.7687 10.8195 22.8904 10.701C22.9724 10.6076 23.0745 10.5336 23.1891 10.4844C23.3037 10.4351 23.428 10.4119 23.5528 10.4163H27.2399C27.5951 10.4222 27.9387 10.5425 28.2188 10.7591C28.5038 10.9695 28.7101 11.2679 28.805 11.6073L31.1146 19.0203C31.4677 20.3751 32.0634 21.656 32.8731 22.8023C33.1219 23.1237 33.4411 23.3849 33.8067 23.566C34.1723 23.7472 34.5747 23.8436 34.9834 23.848L38.5005 11.6073C38.5922 11.2739 38.787 10.9773 39.0574 10.7591C39.3146 10.5385 39.6433 10.4168 39.9835 10.4163H43.7058C43.8296 10.4067 43.9538 10.4277 44.0673 10.4774C44.1809 10.5271 44.2802 10.6039 44.3565 10.701C44.4762 10.8272 44.5522 10.988 44.5734 11.16C44.5756 11.2637 44.5637 11.3672 44.5382 11.4679L39.9132 27.7985C39.0886 30.6916 38.0687 32.756 36.8533 33.9915C36.2434 34.605 35.5118 35.0864 34.7046 35.4054C33.8975 35.7244 33.0323 35.874 32.1638 35.8447C30.8063 35.8779 29.4483 35.808 28.1016 35.6356C27.5664 35.5954 27.0511 35.4171 26.6068 35.1185C26.5117 35.0262 26.4363 34.9159 26.385 34.7941C26.3336 34.6724 26.3074 34.5417 26.3079 34.4098V32.4868C26.3029 32.3439 26.3268 32.2014 26.3782 32.0677C26.4295 31.934 26.5072 31.8119 26.6068 31.7083C26.7084 31.6066 26.8301 31.5267 26.9642 31.4737C27.0984 31.4208 27.2421 31.3958 27.3865 31.4004H28.0371Z" fill="black"/>
<path d="M47.1116 34.4217V11.503C47.1072 11.3591 47.1325 11.2159 47.186 11.082C47.2394 10.9482 47.3198 10.8265 47.4223 10.7246C47.5221 10.6237 47.6418 10.5443 47.7739 10.4913C47.906 10.4384 48.0478 10.4129 48.1902 10.4166H51.596C51.7395 10.4142 51.8821 10.4407 52.0149 10.4947C52.1477 10.5488 52.268 10.6291 52.3684 10.7308C52.4689 10.8325 52.5473 10.9535 52.5989 11.0862C52.6505 11.219 52.6743 11.3608 52.6687 11.503V12.0259C54.5563 10.7165 56.813 10.0313 59.1167 10.0681C60.2684 10.0417 61.4127 10.2579 62.4737 10.7026C63.5348 11.1473 64.4885 11.8102 65.2717 12.6475C66.9208 14.3671 67.7453 16.8265 67.7453 20.0256C67.7453 23.2247 66.8915 25.6764 65.1837 27.3805C63.476 29.0808 61.1762 29.9329 58.2843 29.9367C56.5488 29.893 54.8297 29.5914 53.1845 29.042V34.4217C53.1897 34.5652 53.1654 34.7082 53.1129 34.842C53.0605 34.9759 52.9812 35.0977 52.8797 35.2002C52.7795 35.3005 52.6597 35.3795 52.5277 35.4324C52.3957 35.4853 52.2542 35.5111 52.1118 35.5081H48.1609C48.0185 35.5118 47.8767 35.4863 47.7446 35.4334C47.6125 35.3804 47.4928 35.301 47.393 35.2002C47.2958 35.0958 47.2207 34.9731 47.1724 34.8393C47.124 34.7056 47.1034 34.5635 47.1116 34.4217ZM53.2021 25.0044C54.437 25.4303 55.7291 25.6711 57.0357 25.719C58.6497 25.719 59.7928 25.2639 60.4649 24.3537C61.1371 23.4436 61.4751 21.9931 61.479 20.0024C61.479 18.0097 61.1625 16.5573 60.5177 15.6569C60.1937 15.2072 59.7594 14.8469 59.2558 14.61C58.7521 14.3732 58.1958 14.2676 57.6395 14.3032C56.3675 14.3032 54.8845 14.8261 53.2021 15.8776V25.0044Z" fill="black"/>
<path d="M111.428 28.5192V11.503C111.423 11.3595 111.447 11.2165 111.499 11.0827C111.552 10.9488 111.631 10.827 111.733 10.7245C111.833 10.6243 111.953 10.5452 112.085 10.4923C112.217 10.4393 112.358 10.4136 112.501 10.4166H116.188C116.333 10.4118 116.478 10.4365 116.613 10.4894C116.748 10.5423 116.871 10.6221 116.974 10.724C117.076 10.8259 117.157 10.9476 117.21 11.0816C117.264 11.2156 117.289 11.359 117.284 11.503V22.9943L123.492 11.6773C123.694 11.3055 123.994 10.9945 124.359 10.7768C124.694 10.5533 125.087 10.4284 125.49 10.4166H130.426C130.571 10.4118 130.716 10.4365 130.851 10.4894C130.986 10.5423 131.109 10.6221 131.212 10.724C131.315 10.8259 131.395 10.9476 131.449 11.0816C131.502 11.2156 131.527 11.359 131.522 11.503V28.5192C131.527 28.6614 131.502 28.803 131.449 28.9351C131.395 29.0671 131.314 29.1867 131.212 29.286C131.107 29.3853 130.984 29.4627 130.849 29.5136C130.714 29.5645 130.57 29.5879 130.426 29.5823H126.739C126.596 29.5879 126.453 29.564 126.32 29.512C126.187 29.4599 126.066 29.381 125.965 29.2802C125.867 29.1796 125.79 29.0603 125.738 28.9296C125.687 28.7989 125.662 28.6594 125.666 28.5192V17.0453L119.441 28.3275C119.232 28.6879 118.936 28.9913 118.579 29.2105C118.247 29.4405 117.853 29.5697 117.448 29.5823H112.489C112.346 29.5889 112.204 29.566 112.071 29.5149C111.937 29.4638 111.816 29.3857 111.715 29.2857C111.615 29.1856 111.536 29.0657 111.484 28.9337C111.433 28.8017 111.409 28.6606 111.416 28.5192H111.428Z" fill="black"/>
<path d="M135.854 28.5193V11.5031C135.849 11.3592 135.875 11.216 135.928 11.0821C135.982 10.9482 136.062 10.8266 136.165 10.7246C136.265 10.6244 136.385 10.5453 136.517 10.4924C136.649 10.4395 136.79 10.4137 136.932 10.4167H140.883C141.028 10.4114 141.172 10.436 141.306 10.4891C141.44 10.5421 141.562 10.6223 141.663 10.7246C141.763 10.8282 141.84 10.9503 141.892 11.084C141.943 11.2177 141.967 11.3602 141.962 11.5031V17.7658H149.688V11.5031C149.683 11.3591 149.708 11.2157 149.761 11.0817C149.815 10.9477 149.895 10.826 149.998 10.7241C150.101 10.6223 150.224 10.5424 150.359 10.4895C150.494 10.4366 150.639 10.4119 150.784 10.4167H154.717C154.862 10.4125 155.005 10.4376 155.139 10.4906C155.273 10.5435 155.395 10.6232 155.497 10.7246C155.596 10.8282 155.674 10.9503 155.726 11.084C155.777 11.2177 155.801 11.3602 155.796 11.5031V28.5193C155.801 28.6605 155.777 28.8014 155.726 28.9332C155.675 29.0651 155.597 29.1851 155.497 29.2861C155.394 29.3847 155.271 29.4617 155.137 29.5126C155.003 29.5635 154.861 29.5872 154.717 29.5824H150.784C150.639 29.5875 150.495 29.5634 150.36 29.5115C150.225 29.4596 150.102 29.3809 149.998 29.2803C149.897 29.181 149.818 29.0623 149.764 28.9315C149.711 28.8006 149.685 28.6604 149.688 28.5193V21.9951H141.95V28.5193C141.955 28.6615 141.93 28.8031 141.876 28.9352C141.823 29.0672 141.742 29.1868 141.639 29.2861C141.538 29.3843 141.418 29.4612 141.286 29.5121C141.154 29.5631 141.013 29.5869 140.872 29.5824H136.921C136.778 29.5877 136.636 29.5642 136.503 29.5133C136.37 29.4623 136.249 29.385 136.147 29.2861C136.047 29.1853 135.97 29.0651 135.919 28.9331C135.869 28.8011 135.847 28.6602 135.854 28.5193Z" fill="black"/>
<path d="M161.365 28.3273C160.614 27.8311 160.004 27.1523 159.594 26.3559C159.183 25.5595 158.986 24.6721 159.02 23.7784C158.983 22.8892 159.18 22.0058 159.591 21.2146C160.002 20.4233 160.613 19.7513 161.365 19.2644C163.168 18.1523 165.269 17.6056 167.391 17.6958H173.253C173.253 16.3286 172.963 15.3778 172.385 14.8433C171.799 14.3088 170.802 14.0358 169.36 14.0358C167.918 14.0358 166.91 14.3902 166.324 15.0989C166.074 15.4277 165.751 15.6944 165.38 15.8779C165.009 16.0614 164.599 16.1567 164.184 16.1563H161.552C161.407 16.1606 161.263 16.1356 161.128 16.0827C160.992 16.0297 160.87 15.95 160.767 15.8484C160.666 15.7491 160.586 15.6303 160.532 15.4995C160.479 15.3687 160.453 15.2284 160.456 15.0873C160.456 11.741 163.663 10.0679 170.075 10.0679C172.877 10.0679 175.124 10.6895 176.817 11.9327C178.509 13.176 179.355 15.097 179.355 17.6958V28.519C179.361 28.6604 179.338 28.8016 179.287 28.9336C179.235 29.0655 179.156 29.1854 179.055 29.2855C178.954 29.3856 178.833 29.4636 178.7 29.5147C178.567 29.5658 178.425 29.5888 178.282 29.5821H174.876C174.732 29.5886 174.588 29.565 174.454 29.513C174.32 29.4609 174.198 29.3816 174.097 29.2801C173.998 29.1794 173.921 29.0601 173.87 28.9294C173.818 28.7987 173.794 28.6592 173.798 28.519V27.9729C171.918 29.3 169.657 29.9907 167.35 29.9423C165.235 30.0233 163.146 29.4596 161.365 28.3273ZM165.867 22.2563C165.639 22.4461 165.455 22.683 165.329 22.9505C165.204 23.2179 165.138 23.5094 165.138 23.8045C165.138 24.0996 165.204 24.3912 165.329 24.6586C165.455 24.9261 165.639 25.163 165.867 25.3528C166.472 25.7949 167.215 26.011 167.965 25.9628C169.828 25.9486 171.648 25.4019 173.206 24.3884V21.6405H167.789C167.095 21.6134 166.414 21.8316 165.867 22.2563Z" fill="black"/>
<path d="M183.681 28.5193V11.5031C183.676 11.3596 183.7 11.2166 183.752 11.0828C183.805 10.9489 183.884 10.8271 183.986 10.7246C184.086 10.6244 184.206 10.5453 184.338 10.4924C184.47 10.4395 184.611 10.4137 184.754 10.4167H188.71C188.854 10.4119 188.997 10.4368 189.13 10.4898C189.263 10.5428 189.384 10.6228 189.484 10.7246C189.584 10.8282 189.661 10.9503 189.713 11.084C189.764 11.2177 189.788 11.3602 189.783 11.5031V17.7658H197.515V11.5031C197.509 11.3594 197.533 11.2161 197.586 11.0821C197.639 10.9481 197.719 10.8264 197.821 10.7244C197.923 10.6224 198.046 10.5425 198.181 10.4896C198.316 10.4366 198.46 10.4118 198.605 10.4167H202.538C202.683 10.4114 202.827 10.436 202.961 10.4891C203.095 10.5421 203.217 10.6223 203.318 10.7246C203.418 10.8282 203.495 10.9503 203.547 11.084C203.598 11.2177 203.622 11.3602 203.617 11.5031V28.5193C203.624 28.6612 203.6 28.8029 203.549 28.9353C203.497 29.0677 203.417 29.1878 203.316 29.288C203.214 29.3882 203.092 29.4661 202.959 29.5169C202.825 29.5676 202.682 29.5899 202.538 29.5824H198.605C198.46 29.5875 198.316 29.5634 198.181 29.5115C198.046 29.4596 197.923 29.3809 197.82 29.2803C197.719 29.1807 197.64 29.0618 197.588 28.931C197.536 28.8001 197.511 28.66 197.515 28.5193V21.9951H189.783V28.5193C189.789 28.6616 189.764 28.8036 189.711 28.9358C189.657 29.068 189.576 29.1874 189.472 29.2861C189.372 29.3836 189.253 29.4601 189.122 29.511C188.991 29.5619 188.851 29.5862 188.71 29.5824H184.754C184.611 29.589 184.468 29.5661 184.335 29.515C184.202 29.4639 184.081 29.3858 183.98 29.2858C183.879 29.1857 183.8 29.0658 183.749 28.9338C183.697 28.8019 183.674 28.6607 183.681 28.5193Z" fill="black"/>
<path d="M217.333 29.9365C214.031 29.9365 211.464 29.0961 209.631 27.4152C207.798 25.7343 206.882 23.2652 206.882 20.008C206.882 16.7508 207.792 14.2798 209.613 12.595C211.434 10.9102 213.975 10.0679 217.234 10.0679C220.485 10.0679 222.986 10.581 224.737 11.6074C225.556 12.0502 226.234 12.7103 226.696 13.5138C227.158 14.3172 227.385 15.2322 227.351 16.1563C227.357 16.2981 227.333 16.4395 227.28 16.5715C227.228 16.7035 227.148 16.8233 227.047 16.9231C226.942 17.0218 226.819 17.0989 226.684 17.1497C226.549 17.2006 226.405 17.2243 226.261 17.2194H223.629C223.208 17.2021 222.799 17.0755 222.443 16.8522C222.087 16.6289 221.797 16.3168 221.601 15.9471C220.909 14.8472 219.684 14.2991 217.926 14.303C216.167 14.303 214.936 14.7445 214.238 15.6392C213.541 16.5339 213.183 17.963 213.183 20.0022C213.183 22.0413 213.547 23.4879 214.274 24.371C215 25.254 216.255 25.7188 218.049 25.7188C219.842 25.7188 221.085 25.1727 221.777 24.0747C221.971 23.7083 222.257 23.3984 222.609 23.1753C222.961 22.9522 223.365 22.8237 223.782 22.8024H226.413C226.559 22.798 226.703 22.8231 226.838 22.876C226.973 22.9289 227.096 23.0087 227.199 23.1103C227.3 23.2096 227.38 23.3283 227.433 23.4592C227.487 23.59 227.513 23.7303 227.51 23.8714C227.543 24.7961 227.316 25.7118 226.853 26.5154C226.39 27.319 225.71 27.9787 224.889 28.4202C223.143 29.4272 220.624 29.9327 217.333 29.9365Z" fill="black"/>
<path d="M82.3646 23.7145V6.02441C82.3646 6.02441 76.8838 7.86025 76.5496 8.00549C75.2936 8.54929 74.2236 9.44239 73.4693 10.5766C72.715 11.7109 72.3088 13.0376 72.2998 14.396V28.6991C72.3105 30.0564 72.7167 31.3816 73.4696 32.5154C74.2226 33.6492 75.2901 34.5431 76.5438 35.0896C76.8779 35.2348 82.3646 37.0706 82.3646 37.0706V30.1573H79.7033L82.3646 23.7145Z" fill="#60AAFB"/>
<path d="M94.5633 12.0839V0C94.5633 0 89.0766 1.84161 88.7484 1.98104C87.4932 2.52604 86.424 3.41949 85.6699 4.55346C84.9158 5.68743 84.509 7.01346 84.4985 8.37154V23.7959L87.1188 30.1864H84.4985C84.4985 38.4999 84.4985 46.0232 84.4985 46.0232C84.4985 46.0232 89.9852 44.1816 90.3193 44.0364C91.574 43.4908 92.6428 42.5972 93.3968 41.4634C94.1509 40.3295 94.558 39.0038 94.5691 37.6459V18.6196H91.8903L94.5633 12.0839Z" fill="#355DFB"/>
<path d="M106.674 14.4018C106.665 13.0434 106.258 11.7167 105.504 10.5825C104.75 9.44825 103.68 8.55511 102.424 8.01131C102.09 7.86608 96.6089 6.03027 96.6089 6.03027V12.1361L99.2819 18.6254H96.6089V37.0881C96.6089 37.0881 102.096 35.2523 102.43 35.1071C103.683 34.5606 104.751 33.6667 105.504 32.5329C106.257 31.3991 106.663 30.0738 106.674 28.7166V14.4018Z" fill="#0000DE"/>
</g>
<defs>
<clipPath id="clip0">
<rect width="227.504" height="46" fill="white"/>
</clipPath>
</defs>
</svg>
