<svg width="12" height="12" viewBox="0 0 12 12" fill="none" xmlns="http://www.w3.org/2000/svg">
<path d="M3.77977 5.80077C4.29842 6.86111 5.15792 7.7167 6.2206 8.23052C6.29835 8.26736 6.38436 8.28332 6.47015 8.27683C6.55595 8.27034 6.63857 8.24162 6.7099 8.1935L8.27462 7.1501C8.34383 7.10395 8.42345 7.0758 8.50628 7.06819C8.58911 7.06058 8.67253 7.07376 8.74898 7.10652L11.6763 8.36109C11.7757 8.40333 11.8588 8.47674 11.9128 8.57027C11.9669 8.6638 11.9892 8.77237 11.9762 8.87963C11.8837 9.60363 11.5304 10.2691 10.9826 10.7514C10.4347 11.2337 9.72989 11.4998 9 11.4998C6.74566 11.4998 4.58365 10.6043 2.98959 9.01023C1.39553 7.41617 0.5 5.25416 0.5 2.99982C0.500038 2.26993 0.766121 1.56507 1.24843 1.01724C1.73073 0.469405 2.39618 0.116154 3.12019 0.0236297C3.22745 0.0106496 3.33602 0.0328789 3.42955 0.0869684C3.52307 0.141058 3.59649 0.224078 3.63873 0.323519L4.89439 3.25339C4.92687 3.32917 4.9401 3.41181 4.93291 3.49394C4.92572 3.57608 4.89833 3.65516 4.85318 3.72415L3.81341 5.31289C3.76608 5.38435 3.73811 5.46688 3.73221 5.55239C3.72631 5.6379 3.7427 5.72348 3.77977 5.80077Z" fill="#0000DE"/>
</svg>
