<svg width="23" height="23" viewBox="0 0 23 23" fill="none" xmlns="http://www.w3.org/2000/svg">
<path d="M7.9064 12.1174L15.9849 19.2265C16.0784 19.3088 16.1916 19.3653 16.3135 19.3907C16.4354 19.416 16.5618 19.4092 16.6803 19.371C16.7988 19.3328 16.9054 19.2645 16.9895 19.1727C17.0736 19.0809 17.1325 18.9689 17.1603 18.8475L20.5397 4.10121C20.5689 3.97371 20.5628 3.84066 20.522 3.71639C20.4811 3.59212 20.4072 3.48134 20.3081 3.39599C20.2089 3.31065 20.0884 3.25397 19.9595 3.23206C19.8305 3.21015 19.698 3.22385 19.5763 3.27168L2.995 9.78575C2.85049 9.84253 2.72825 9.94457 2.64657 10.0766C2.56489 10.2086 2.52816 10.3636 2.54187 10.5182C2.55559 10.6729 2.61902 10.8189 2.72267 10.9345C2.82631 11.0501 2.96461 11.1291 3.11685 11.1595L7.9064 12.1174Z" stroke="black" stroke-linecap="round" stroke-linejoin="round"/>
<path d="M7.90625 12.1174L20.1351 3.28551" stroke="black" stroke-linecap="round" stroke-linejoin="round"/>
<path d="M11.9409 15.6679L9.13323 18.4755C9.03271 18.5761 8.90465 18.6445 8.76522 18.6723C8.6258 18.7 8.48128 18.6858 8.34995 18.6314C8.21861 18.577 8.10636 18.4848 8.02738 18.3666C7.94841 18.2484 7.90625 18.1095 7.90625 17.9673V12.1174" stroke="black" stroke-linecap="round" stroke-linejoin="round"/>
</svg>
