<svg width="23" height="23" viewBox="0 0 23 23" fill="none" xmlns="http://www.w3.org/2000/svg">
<path d="M4.31274 17.9688C4.31274 17.9688 7.90649 17.25 8.62524 15.0938C8.62524 15.0938 2.87524 12.9375 4.31274 5.03125C4.31274 5.03125 7.18774 8.625 11.5002 9.34375V7.90651C11.5003 7.08081 11.7847 6.28031 12.3055 5.6396C12.8264 4.99889 13.5519 4.55704 14.3602 4.38833C15.1685 4.21962 16.0102 4.33435 16.7438 4.71321C17.4775 5.09208 18.0583 5.71199 18.3887 6.46872L21.5627 6.46875L18.6877 9.34375C18.6877 14.375 15.094 19.4063 8.62524 19.4063C5.75024 19.4063 4.31274 17.9688 4.31274 17.9688Z" stroke="black" stroke-linecap="round" stroke-linejoin="round"/>
</svg>
