<svg width="23" height="23" viewBox="0 0 23 23" fill="none" xmlns="http://www.w3.org/2000/svg">
<path d="M14.375 11.5L10.0625 8.625V14.375L14.375 11.5Z" stroke="black" stroke-linecap="round" stroke-linejoin="round"/>
<path d="M2.15625 11.5C2.15625 14.1733 2.43244 15.7419 2.6424 16.548C2.69853 16.7682 2.8063 16.9718 2.95681 17.142C3.10731 17.3122 3.29621 17.4442 3.50785 17.5268C6.51554 18.6826 11.5 18.6509 11.5 18.6509C11.5 18.6509 16.4844 18.6826 19.4921 17.5268C19.7038 17.4442 19.8927 17.3123 20.0432 17.142C20.1937 16.9718 20.3015 16.7682 20.3576 16.548C20.5675 15.7419 20.8438 14.1734 20.8438 11.5C20.8438 8.82665 20.5676 7.25814 20.3576 6.45199C20.3015 6.23182 20.1937 6.02819 20.0432 5.85797C19.8927 5.68776 19.7038 5.55586 19.4921 5.4732C16.4845 4.31738 11.5 4.34912 11.5 4.34912C11.5 4.34912 6.5156 4.31738 3.50788 5.47318C3.29624 5.55584 3.10734 5.68775 2.95683 5.85796C2.80633 6.02817 2.69855 6.2318 2.64242 6.45197C2.43245 7.25812 2.15625 8.82665 2.15625 11.5Z" stroke="black" stroke-linecap="round" stroke-linejoin="round"/>
</svg>
