<svg width="156" height="32" fill="none" xmlns="http://www.w3.org/2000/svg"><g clip-path="url(#clip0)"><path d="M0 19.84V8.001a.74.74 0 01.454-.703.716.716 0 01.286-.053h2.709a.72.72 0 01.534.214.748.748 0 01.205.542v4.357h5.298V8.002a.735.735 0 01.46-.705.724.724 0 01.292-.05h2.697a.704.704 0 01.53.213.753.753 0 01.21.542v11.837a.715.715 0 01-.453.693.703.703 0 01-.287.047h-2.697a.728.728 0 01-.752-.74v-4.538H4.188v4.538a.715.715 0 01-.74.74H.74a.724.724 0 01-.535-.206.724.724 0 01-.205-.534zm19.225 2.004l1.584.21c1.139 0 1.933-.84 2.383-2.518a4.916 4.916 0 01-3.433-1.249c-.919-.832-1.71-2.314-2.371-4.445l-1.809-5.864a.648.648 0 01-.036-.227.53.53 0 01.153-.307.576.576 0 01.454-.198h2.528c.244.004.48.088.671.239.196.146.337.354.402.59l1.584 5.157c.242.942.65 1.833 1.206 2.63a1.852 1.852 0 001.447.728L26.4 8.075c.063-.232.196-.439.382-.59a.97.97 0 01.635-.239h2.552a.512.512 0 01.446.198c.082.088.134.2.149.32a.813.813 0 01-.024.214l-3.172 11.36c-.565 2.013-1.264 3.449-2.098 4.308a4.306 4.306 0 01-3.215 1.29 18.148 18.148 0 01-2.786-.146 2.103 2.103 0 01-1.025-.36.687.687 0 01-.205-.493V22.6a.751.751 0 01.205-.542.718.718 0 01.535-.214h.446zm13.079 2.101V8.002a.74.74 0 01.455-.704.708.708 0 01.285-.052h2.335a.72.72 0 01.688.466.73.73 0 01.048.29v.364a7.472 7.472 0 014.421-1.362 5.553 5.553 0 014.22 1.794c1.132 1.196 1.697 2.907 1.697 5.133 0 2.225-.586 3.93-1.757 5.116-1.17 1.183-2.747 1.776-4.73 1.779-1.19-.031-2.37-.24-3.497-.623v3.742a.739.739 0 01-.21.542.717.717 0 01-.526.214h-2.71a.707.707 0 01-.526-.214.736.736 0 01-.193-.542zm4.177-6.55a8.97 8.97 0 002.628.496c1.107 0 1.89-.316 2.352-.95.46-.633.693-1.641.695-3.026 0-1.387-.217-2.397-.659-3.023a2.25 2.25 0 00-1.974-.942c-.872 0-1.889.364-3.042 1.095v6.35zm39.925 2.445V8.001a.74.74 0 01.21-.542.72.72 0 01.526-.214h2.528a.724.724 0 01.701.463.736.736 0 01.05.293v7.994l4.257-7.873a1.65 1.65 0 01.595-.626c.23-.156.499-.243.776-.25h3.384a.724.724 0 01.702.462.734.734 0 01.05.293v11.837a.714.714 0 01-.752.74h-2.528a.704.704 0 01-.686-.454.735.735 0 01-.05-.286v-7.981l-4.268 7.848c-.144.25-.347.462-.591.614a1.43 1.43 0 01-.776.259h-3.4a.7.7 0 01-.69-.451.71.71 0 01-.046-.289h.008zm16.75 0V8.001a.74.74 0 01.454-.703.716.716 0 01.285-.053h2.71a.708.708 0 01.69.464.751.751 0 01.049.292v4.357h5.298V8.002a.744.744 0 01.212-.542.732.732 0 01.539-.214h2.697a.723.723 0 01.535.214.75.75 0 01.205.542v11.837a.726.726 0 01-.205.534.736.736 0 01-.535.206h-2.697a.73.73 0 01-.538-.21.721.721 0 01-.213-.53v-4.538h-5.306v4.538a.716.716 0 01-.74.74h-2.709a.715.715 0 01-.53-.206.712.712 0 01-.201-.534zm17.492-.134a3.632 3.632 0 01-1.214-1.371 3.654 3.654 0 01-.393-1.793 3.582 3.582 0 011.607-3.14 7.206 7.206 0 014.132-1.092h4.02c0-.95-.198-1.612-.595-1.984-.402-.372-1.085-.562-2.074-.562-.989 0-1.68.247-2.082.74a1.829 1.829 0 01-1.467.736h-1.805a.723.723 0 01-.539-.215.718.718 0 01-.213-.53c0-2.327 2.199-3.491 6.596-3.491 1.922 0 3.462.432 4.623 1.297 1.16.865 1.74 2.201 1.74 4.01v7.528a.71.71 0 01-.449.693.696.696 0 01-.286.047h-2.336a.7.7 0 01-.69-.454.732.732 0 01-.049-.286v-.38a7.326 7.326 0 01-4.422 1.37 7.067 7.067 0 01-4.104-1.123zm3.087-4.223a1.406 1.406 0 00-.499 1.077 1.417 1.417 0 00.499 1.077 2.18 2.18 0 001.439.424 6.615 6.615 0 003.594-1.095v-1.912h-3.714a2.004 2.004 0 00-1.319.429zm12.215 4.357V8.001a.749.749 0 01.209-.542.72.72 0 01.527-.214h2.713a.702.702 0 01.688.464.762.762 0 01.048.292v4.357h5.301V8.002a.728.728 0 01.748-.756h2.697a.709.709 0 01.692.464.762.762 0 01.048.292v11.837a.71.71 0 01-.74.74h-2.697a.73.73 0 01-.539-.21.732.732 0 01-.209-.53v-4.538h-5.301v4.538a.7.7 0 01-.213.534.72.72 0 01-.523.206h-2.713a.701.701 0 01-.689-.451.728.728 0 01-.047-.289zm23.076.986c-2.264 0-4.025-.585-5.282-1.755-1.256-1.169-1.885-2.886-1.885-5.152s.625-3.985 1.873-5.157c1.249-1.172 2.991-1.758 5.226-1.758 2.229 0 3.944.357 5.145 1.07a3.459 3.459 0 011.792 3.165.712.712 0 01-.209.534.738.738 0 01-.538.206h-1.805a1.639 1.639 0 01-.813-.256 1.66 1.66 0 01-.578-.63c-.474-.764-1.314-1.146-2.52-1.143-1.206 0-2.05.307-2.528.93-.479.622-.724 1.616-.724 3.035 0 1.418.25 2.425.748 3.039.498.614 1.359.937 2.588.937 1.23 0 2.083-.38 2.557-1.143a1.647 1.647 0 011.375-.885h1.804a.733.733 0 01.7.457.74.74 0 01.052.286 3.47 3.47 0 01-1.797 3.165c-1.198.7-2.925 1.052-5.181 1.055z" fill="#000"/><path d="M56.478 16.497V4.191s-3.759 1.277-3.988 1.378c-.861.378-1.595 1-2.112 1.789a4.905 4.905 0 00-.802 2.657v9.95c.008.944.286 1.866.802 2.654a4.878 4.878 0 002.108 1.791c.23.101 3.992 1.378 3.992 1.378V20.98h-1.825l1.825-4.482z" fill="#60AAFB"/><path d="M64.842 8.406V0s-3.762 1.281-3.987 1.378c-.86.38-1.594 1-2.11 1.79a4.914 4.914 0 00-.804 2.656v10.73l1.797 4.445H57.94v11.017s3.762-1.281 3.991-1.382a4.879 4.879 0 002.11-1.79 4.918 4.918 0 00.804-2.656V12.953H63.01l1.833-4.547z" fill="#355DFB"/><path d="M73.147 10.019a4.906 4.906 0 00-.802-2.657 4.866 4.866 0 00-2.113-1.789c-.229-.1-3.987-1.378-3.987-1.378v4.248l1.833 4.514h-1.833V25.8s3.762-1.277 3.991-1.378a4.878 4.878 0 002.108-1.79c.517-.79.795-1.711.803-2.655v-9.958z" fill="#0000DE"/></g><defs><clipPath id="clip0"><path fill="#fff" d="M0 0h156v32H0z"/></clipPath></defs></svg>