<svg width="35" height="46" fill="none" xmlns="http://www.w3.org/2000/svg"><path d="M10.365 23.715V6.024S4.884 7.86 4.55 8.004a7.072 7.072 0 00-3.08 2.572 6.98 6.98 0 00-1.17 3.82v14.303a6.996 6.996 0 001.17 3.816 7.089 7.089 0 003.074 2.575c.334.145 5.82 1.98 5.82 1.98v-6.913h-2.66l2.66-6.442z" fill="#60AAFB"/><path d="M22.563 12.084V0s-5.486 1.842-5.815 1.981a7.083 7.083 0 00-3.078 2.572 6.991 6.991 0 00-1.171 3.819v15.424l2.62 6.39h-2.62v15.837s5.486-1.841 5.82-1.987a7.089 7.089 0 003.078-2.573 6.996 6.996 0 001.172-3.817V18.62H19.89l2.673-6.536z" fill="#355DFB"/><path d="M34.674 14.402a6.98 6.98 0 00-1.17-3.82 7.071 7.071 0 00-3.08-2.57c-.334-.146-5.815-1.982-5.815-1.982v6.106l2.673 6.49h-2.673v18.462s5.486-1.836 5.82-1.98a7.09 7.09 0 003.075-2.575 6.997 6.997 0 001.17-3.816V14.402z" fill="#0000DE"/></svg>