<svg width="159" height="32" fill="none" xmlns="http://www.w3.org/2000/svg"><g clip-path="url(#clip0_32:1093)"><path d="M0 19.84V8.001a.73.73 0 01.461-.703.736.736 0 01.29-.053h2.748a.74.74 0 01.542.214.747.747 0 01.208.542v4.357h5.375V8.002a.726.726 0 01.466-.705.744.744 0 01.296-.05h2.736a.723.723 0 01.7.463.745.745 0 01.05.292v11.837a.705.705 0 01-.458.693.723.723 0 01-.292.047h-2.736a.748.748 0 01-.546-.21.723.723 0 01-.216-.53v-4.538H4.249v4.538a.706.706 0 01-.216.534.74.74 0 01-.534.206H.75a.744.744 0 01-.542-.206.723.723 0 01-.208-.534zm19.504 2.004l1.607.21c1.155 0 1.961-.84 2.418-2.518a5.03 5.03 0 01-3.483-1.249c-.932-.832-1.734-2.314-2.406-4.445l-1.835-5.864a.64.64 0 01-.036-.227.528.528 0 01.155-.307.583.583 0 01.46-.198h2.565c.247.004.486.088.681.239.199.146.342.354.408.59l1.607 5.157a8.09 8.09 0 001.223 2.63 1.875 1.875 0 001.468.728l2.447-8.515c.064-.232.2-.439.387-.59a.992.992 0 01.644-.239h2.59a.526.526 0 01.453.198c.083.088.136.2.15.32a.797.797 0 01-.024.214l-3.217 11.36c-.574 2.013-1.284 3.449-2.13 4.308a4.405 4.405 0 01-3.262 1.29 18.657 18.657 0 01-2.825-.146 2.154 2.154 0 01-1.04-.36.686.686 0 01-.208-.493V22.6a.742.742 0 01.208-.542.729.729 0 01.542-.214h.453zm13.269 2.101V8.002a.729.729 0 01.216-.542.723.723 0 01.535-.214h2.369a.74.74 0 01.697.466.72.72 0 01.049.29v.364a7.657 7.657 0 014.486-1.362 5.705 5.705 0 012.335.441c.738.31 1.401.77 1.946 1.353 1.148 1.196 1.721 2.907 1.721 5.133 0 2.225-.594 3.93-1.782 5.116-1.188 1.183-2.788 1.776-4.8 1.779a12.175 12.175 0 01-3.547-.623v3.742a.729.729 0 01-.746.756h-2.749a.728.728 0 01-.534-.214.735.735 0 01-.196-.542zm4.237-6.55a9.217 9.217 0 002.667.496c1.123 0 1.918-.316 2.386-.95.467-.633.702-1.641.705-3.026 0-1.387-.22-2.397-.669-3.023a2.275 2.275 0 00-.878-.729 2.298 2.298 0 00-1.124-.213c-.885 0-1.917.364-3.087 1.095v6.35zm40.505 2.445V8.001a.729.729 0 01.746-.756h2.565a.744.744 0 01.711.463.726.726 0 01.051.293v7.994l4.319-7.873c.14-.258.35-.475.603-.626.234-.156.506-.243.787-.25h3.434a.744.744 0 01.711.462.726.726 0 01.052.293v11.837a.706.706 0 01-.217.534.747.747 0 01-.546.206h-2.565a.723.723 0 01-.538-.21.732.732 0 01-.208-.53v-7.981l-4.33 7.848c-.146.25-.352.462-.6.614-.232.16-.505.25-.787.259h-3.45a.718.718 0 01-.7-.451.703.703 0 01-.046-.289h.008zm16.992 0V8.001a.73.73 0 01.461-.703.735.735 0 01.29-.053h2.748a.728.728 0 01.542.214.746.746 0 01.208.542v4.357h5.375V8.002a.718.718 0 01.216-.542.735.735 0 01.546-.214h2.737a.737.737 0 01.542.214.756.756 0 01.208.542v11.837a.716.716 0 01-.208.533.748.748 0 01-.542.207h-2.737a.75.75 0 01-.546-.21.727.727 0 01-.216-.53v-4.538h-5.383v4.538a.706.706 0 01-.216.534.728.728 0 01-.534.206h-2.749a.735.735 0 01-.538-.206.71.71 0 01-.204-.534zm17.747-.134a3.646 3.646 0 01-1.232-1.371 3.604 3.604 0 01-.399-1.794 3.545 3.545 0 01.397-1.783 3.588 3.588 0 011.234-1.357 7.388 7.388 0 014.192-1.09h4.078c0-.952-.202-1.613-.604-1.985-.408-.372-1.101-.562-2.104-.562-1.003 0-1.705.247-2.112.74a1.864 1.864 0 01-1.489.735h-1.831a.747.747 0 01-.709-.457.722.722 0 01-.053-.286c0-2.328 2.23-3.492 6.691-3.492 1.95 0 3.513.432 4.69 1.297 1.177.865 1.765 2.201 1.765 4.01v7.528a.693.693 0 01-.208.534.708.708 0 01-.538.206h-2.369a.727.727 0 01-.542-.21.714.714 0 01-.208-.53v-.38a7.507 7.507 0 01-4.486 1.37 7.245 7.245 0 01-4.163-1.123zm3.131-4.223a1.407 1.407 0 00-.506 1.077 1.408 1.408 0 00.506 1.077c.421.307.938.458 1.46.424a6.78 6.78 0 003.646-1.095v-1.912h-3.768a2.054 2.054 0 00-1.338.429zm12.393 4.357V8.001a.73.73 0 01.746-.756h2.752a.721.721 0 01.747.756v4.357h5.378V8.002a.716.716 0 01.213-.542.735.735 0 01.546-.214h2.736a.728.728 0 01.542.214c.07.072.124.157.159.25a.727.727 0 01.049.292v11.837a.698.698 0 01-.209.535.72.72 0 01-.541.205h-2.736a.747.747 0 01-.547-.21.725.725 0 01-.212-.53v-4.538h-5.378v4.538a.694.694 0 01-.216.533.732.732 0 01-.531.207h-2.752a.72.72 0 01-.699-.451.694.694 0 01-.047-.289zm23.411.986c-2.297 0-4.084-.585-5.359-1.755-1.275-1.169-1.912-2.886-1.912-5.152s.633-3.985 1.9-5.157c1.267-1.172 3.034-1.758 5.301-1.758 2.262 0 4.002.357 5.22 1.07.57.309 1.042.768 1.363 1.327.321.559.479 1.195.456 1.838a.713.713 0 01-.212.534.761.761 0 01-.547.206h-1.831a1.673 1.673 0 01-1.411-.885c-.481-.766-1.333-1.147-2.556-1.144-1.224 0-2.08.307-2.565.93-.486.622-.734 1.616-.734 3.035 0 1.418.252 2.425.758 3.039.506.614 1.378.937 2.626.937s2.112-.38 2.594-1.143a1.678 1.678 0 011.394-.885h1.831a.75.75 0 01.547.214.722.722 0 01.216.53 3.438 3.438 0 01-.457 1.839 3.475 3.475 0 01-1.366 1.325c-1.215.7-2.967 1.052-5.256 1.055z" fill="#000"/><path d="M57.297 16.497V4.191s-3.813 1.277-4.045 1.378c-.874.378-1.618 1-2.143 1.789a4.854 4.854 0 00-.814 2.657v9.95c.008.944.29 1.866.814 2.654a4.93 4.93 0 002.139 1.791c.232.101 4.049 1.378 4.049 1.378V20.98h-1.851l1.851-4.482z" fill="#60AAFB"/><path d="M65.783 8.406V0s-3.817 1.281-4.045 1.378a4.93 4.93 0 00-2.142 1.79 4.864 4.864 0 00-.815 2.656v10.73l1.823 4.445h-1.823v11.017s3.817-1.281 4.05-1.382a4.933 4.933 0 002.14-1.79 4.868 4.868 0 00.816-2.656V12.953h-1.864l1.86-4.547z" fill="#355DFB"/><path d="M74.208 10.019a4.855 4.855 0 00-.814-2.657 4.92 4.92 0 00-2.143-1.789c-.232-.1-4.045-1.378-4.045-1.378v4.248l1.86 4.514h-1.86V25.8s3.817-1.277 4.05-1.378a4.93 4.93 0 002.138-1.79c.524-.79.806-1.711.814-2.655v-9.958z" fill="#0000DE"/></g><defs><clipPath id="clip0_32:1093"><path fill="#fff" d="M0 0h158.264v32H0z"/></clipPath></defs></svg>