<svg width="23" height="23" fill="none" xmlns="http://www.w3.org/2000/svg"><path d="M4.081 15.902a8.621 8.621 0 113.017 3.017h0l-2.979.85a.72.72 0 01-.889-.888l.852-2.979h0z" stroke="#000" stroke-linecap="round" stroke-linejoin="round"/><path d="M13.666 16.531A7.188 7.188 0 016.47 9.334a2.514 2.514 0 012.515-2.506v0a.62.62 0 01.538.312l1.05 1.838a.719.719 0 01-.007.727L9.72 11.11a4.329 4.329 0 002.168 2.168v0l1.406-.844a.72.72 0 01.727-.007l1.838 1.05a.62.62 0 01.312.538v0a2.523 2.523 0 01-2.506 2.515v0z" stroke="#000" stroke-linecap="round" stroke-linejoin="round"/></svg>