<svg width="23" height="23" fill="none" xmlns="http://www.w3.org/2000/svg"><path d="M14.375 11.5l-4.313-2.875v5.75l4.313-2.875z" stroke="#000" stroke-linecap="round" stroke-linejoin="round"/><path d="M2.156 11.5c0 2.673.276 4.242.486 5.048a1.43 1.43 0 00.866.979C6.516 18.683 11.5 18.65 11.5 18.65s4.984.032 7.992-1.124a1.428 1.428 0 00.866-.979c.21-.806.486-2.375.486-5.048s-.276-4.242-.486-5.048a1.43 1.43 0 00-.866-.979C16.484 4.317 11.5 4.35 11.5 4.35s-4.984-.032-7.992 1.124a1.43 1.43 0 00-.866.979c-.21.806-.486 2.375-.486 5.048z" stroke="#000" stroke-linecap="round" stroke-linejoin="round"/></svg>