<svg width="35" height="46" viewBox="0 0 35 46" fill="none" xmlns="http://www.w3.org/2000/svg">
<path d="M10.3646 23.7145V6.02441C10.3646 6.02441 4.88376 7.86025 4.54963 8.00549C3.29358 8.54929 2.22357 9.44239 1.46927 10.5766C0.714977 11.7109 0.308765 13.0376 0.299805 14.396V28.6991C0.310461 30.0564 0.716687 31.3816 1.46963 32.5154C2.22258 33.6492 3.29014 34.5431 4.54377 35.0896C4.87789 35.2348 10.3646 37.0706 10.3646 37.0706V30.1573H7.7033L10.3646 23.7145Z" fill="#60AAFB"/>
<path d="M22.5633 12.0839V0C22.5633 0 17.0766 1.84161 16.7484 1.98104C15.4932 2.52604 14.424 3.41949 13.6699 4.55346C12.9158 5.68743 12.509 7.01346 12.4985 8.37154V23.7959L15.1188 30.1864H12.4985C12.4985 38.4999 12.4985 46.0232 12.4985 46.0232C12.4985 46.0232 17.9852 44.1816 18.3193 44.0364C19.574 43.4908 20.6428 42.5972 21.3968 41.4634C22.1509 40.3295 22.558 39.0038 22.5691 37.6459V18.6196H19.8903L22.5633 12.0839Z" fill="#355DFB"/>
<path d="M34.6737 14.4018C34.6647 13.0434 34.2584 11.7167 33.5041 10.5825C32.7498 9.44825 31.6799 8.55511 30.4238 8.01131C30.0897 7.86608 24.6089 6.03027 24.6089 6.03027V12.1361L27.2819 18.6254H24.6089V37.0881C24.6089 37.0881 30.0955 35.2523 30.4297 35.1071C31.6833 34.5606 32.7508 33.6667 33.5038 32.5329C34.2567 31.3991 34.663 30.0738 34.6737 28.7166V14.4018Z" fill="#0000DE"/>
</svg>
